RobotoSerifText-Medium.ufo
<glyph name="exclam" format="1">
  <advance width="295"/>
  <unicode hex="0021"/>
  <outline>
    <contour>
      <point x="223" y="727" type="line"/>
      <point x="223" y="551"/>
      <point x="190" y="450"/>
      <point x="190" y="229" type="curve"/>
      <point x="106" y="229" type="line"/>
      <point x="106" y="450"/>
      <point x="72" y="550"/>
      <point x="72" y="727" type="curve"/>
    </contour>
    <component base="period" xOffset="4"/>
  </outline>
</glyph>
<glyph name="dollar" format="1">
  <advance width="560"/>
  <unicode hex="0024"/>
  <outline>
    <contour>
      <point x="246" y="790" type="line"/>
      <point x="246" y="665" type="line"/>
      <point x="250" y="648" type="line"/>
      <point x="250" y="58" type="line"/>
      <point x="246" y="44" type="line"/>
      <point x="246" y="-120" type="line"/>
      <point x="321" y="-120" type="line"/>
      <point x="321" y="45" type="line"/>
      <point x="317" y="61" type="line"/>
      <point x="317" y="651" type="line"/>
      <point x="321" y="665" type="line"/>
      <point x="321" y="790" type="line"/>
    </contour>
    <contour>
      <point x="283" y="80" type="curve" smooth="yes"/>
      <point x="199" y="80"/>
      <point x="132" y="114"/>
      <point x="97" y="161" type="curve"/>
      <point x="88" y="151"/>
      <point x="115" y="102"/>
      <point x="147" y="102" type="curve"/>
      <point x="147" y="218" type="line"/>
      <point x="35" y="218" type="line"/>
      <point x="35" y="89" type="line"/>
      <point x="80" y="51"/>
      <point x="171" y="12"/>
      <point x="287" y="12" type="curve" smooth="yes"/>
      <point x="429" y="12"/>
      <point x="526" y="81"/>
      <point x="526" y="219" type="curve" smooth="yes"/>
      <point x="526" y="344"/>
      <point x="425" y="393"/>
      <point x="307" y="426" type="curve" smooth="yes"/>
      <point x="230" y="446"/>
      <point x="155" y="461"/>
      <point x="155" y="536" type="curve" smooth="yes"/>
      <point x="155" y="598"/>
      <point x="202" y="631"/>
      <point x="297" y="631" type="curve" smooth="yes"/>
      <point x="364" y="631"/>
      <point x="413" y="607"/>
      <point x="444" y="571" type="curve"/>
      <point x="451" y="589"/>
      <point x="430" y="621"/>
      <point x="401" y="621" type="curve"/>
      <point x="401" y="520" type="line"/>
      <point x="505" y="520" type="line"/>
      <point x="505" y="635" type="line"/>
      <point x="471" y="665"/>
      <point x="392" y="698"/>
      <point x="293" y="698" type="curve" smooth="yes"/>
      <point x="150" y="698"/>
      <point x="56" y="632"/>
      <point x="56" y="511" type="curve" smooth="yes"/>
      <point x="56" y="383"/>
      <point x="154" y="342"/>
      <point x="259" y="312" type="curve" smooth="yes"/>
      <point x="350" y="287"/>
      <point x="421" y="268"/>
      <point x="421" y="185" type="curve" smooth="yes"/>
      <point x="421" y="108"/>
      <point x="371" y="80"/>
    </contour>
  </outline>
</glyph>
<glyph name="parenleft" format="1">
  <advance width="344"/>
  <unicode hex="0028"/>
  <outline>
    <contour>
      <point x="168" y="310" type="curve" smooth="yes"/>
      <point x="168" y="112"/>
      <point x="259" y="-49"/>
      <point x="339" y="-127" type="curve"/>
      <point x="339" y="-130" type="line"/>
      <point x="248" y="-130" type="line"/>
      <point x="139" y="-50"/>
      <point x="42" y="117"/>
      <point x="42" y="310" type="curve" smooth="yes"/>
      <point x="42" y="503"/>
      <point x="139" y="670"/>
      <point x="248" y="750" type="curve"/>
      <point x="339" y="750" type="line"/>
      <point x="339" y="747" type="line"/>
      <point x="259" y="669"/>
      <point x="168" y="508"/>
    </contour>
  </outline>
</glyph>
<glyph name="comma" format="1">
  <advance width="301"/>
  <unicode hex="002C"/>
  <outline>
    <contour>
      <point x="124" y="-176" type="line"/>
      <point x="206" y="-109"/>
      <point x="245" y="-35"/>
      <point x="245" y="48" type="curve" smooth="yes"/>
      <point x="245" y="116"/>
      <point x="205" y="149"/>
      <point x="150" y="149" type="curve" smooth="yes"/>
      <point x="99" y="149"/>
      <point x="65" y="115"/>
      <point x="65" y="69" type="curve" smooth="yes"/>
      <point x="65" y="21"/>
      <point x="102" y="-10"/>
      <point x="156" y="-10" type="curve" smooth="yes"/>
      <point x="176" y="-10"/>
      <point x="189" y="-7"/>
      <point x="199" y="5" type="curve"/>
      <point x="188" y="14"/>
      <point x="177" y="22"/>
      <point x="173" y="14" type="curve"/>
      <point x="169" y="-33"/>
      <point x="110" y="-86"/>
      <point x="36" y="-133" type="curve"/>
    </contour>
  </outline>
</glyph>
<glyph name="less" format="1">
  <advance width="560"/>
  <unicode hex="003C"/>
  <outline>
    <contour>
      <point x="469" y="561" type="line"/>
      <point x="92" y="389" type="line"/>
      <point x="92" y="339" type="line"/>
      <point x="112" y="310" type="line"/>
      <point x="469" y="468" type="line"/>
    </contour>
    <contour>
      <point x="469" y="232" type="line"/>
      <point x="113" y="389" type="line"/>
      <point x="92" y="357" type="line"/>
      <point x="92" y="301" type="line"/>
      <point x="469" y="129" type="line"/>
    </contour>
  </outline>
</glyph>
<glyph name="at" format="1">
  <advance width="917"/>
  <unicode hex="0040"/>
  <outline>
    <contour>
      <point x="467" y="-87" type="curve" smooth="yes"/>
      <point x="261" y="-87"/>
      <point x="115" y="35"/>
      <point x="115" y="231" type="curve" smooth="yes"/>
      <point x="115" y="445"/>
      <point x="278" y="607"/>
      <point x="500" y="607" type="curve" smooth="yes"/>
      <point x="692" y="607"/>
      <point x="802" y="492"/>
      <point x="802" y="342" type="curve" smooth="yes"/>
      <point x="802" y="196"/>
      <point x="727" y="115"/>
      <point x="675" y="115" type="curve" smooth="yes"/>
      <point x="642" y="115"/>
      <point x="629" y="134"/>
      <point x="637" y="179" type="curve" smooth="yes"/>
      <point x="687" y="469" type="line"/>
      <point x="603" y="469" type="line"/>
      <point x="568" y="387" type="line"/>
      <point x="556" y="382" type="line"/>
      <point x="517" y="150" type="line"/>
      <point x="520" y="145"/>
      <point x="526" y="143"/>
      <point x="528" y="145" type="curve"/>
      <point x="536" y="95"/>
      <point x="577" y="54"/>
      <point x="654" y="54" type="curve" smooth="yes"/>
      <point x="763" y="54"/>
      <point x="876" y="159"/>
      <point x="876" y="342" type="curve" smooth="yes"/>
      <point x="876" y="532"/>
      <point x="730" y="673"/>
      <point x="500" y="673" type="curve" smooth="yes"/>
      <point x="240" y="673"/>
      <point x="41" y="487"/>
      <point x="41" y="231" type="curve" smooth="yes"/>
      <point x="41" y="-8"/>
      <point x="223" y="-153"/>
      <point x="467" y="-153" type="curve" smooth="yes"/>
      <point x="576" y="-153"/>
      <point x="681" y="-126"/>
      <point x="742" y="-96" type="curve"/>
      <point x="722" y="-33" type="line"/>
      <point x="659" y="-62"/>
      <point x="572" y="-87"/>
    </contour>
    <contour>
      <point x="407" y="48" type="curve" smooth="yes"/>
      <point x="489" y="48"/>
      <point x="527" y="110"/>
      <point x="594" y="213" type="curve"/>
      <point x="568" y="249" type="line"/>
      <point x="516" y="162"/>
      <point x="475" y="108"/>
      <point x="426" y="108" type="curve" smooth="yes"/>
      <point x="385" y="108"/>
      <point x="365" y="146"/>
      <point x="365" y="213" type="curve" smooth="yes"/>
      <point x="365" y="310"/>
      <point x="410" y="414"/>
      <point x="479" y="414" type="curve" smooth="yes"/>
      <point x="523" y="414"/>
      <point x="553" y="382"/>
      <point x="571" y="299" type="curve"/>
      <point x="605" y="329" type="line"/>
      <point x="580" y="438"/>
      <point x="539" y="475"/>
      <point x="464" y="475" type="curve" smooth="yes"/>
      <point x="327" y="475"/>
      <point x="247" y="344"/>
      <point x="247" y="225" type="curve" smooth="yes"/>
      <point x="247" y="110"/>
      <point x="315" y="48"/>
    </contour>
  </outline>
</glyph>
<glyph name="B" format="1">
  <advance width="695"/>
  <unicode hex="0042"/>
  <outline>
    <contour>
      <point x="372" y="710" type="curve" smooth="yes"/>
      <point x="38" y="710" type="line"/>
      <point x="38" y="652" type="line"/>
      <point x="48" y="652" type="line" smooth="yes"/>
      <point x="90" y="652"/>
      <point x="120" y="645"/>
      <point x="120" y="616" type="curve" smooth="yes"/>
      <point x="120" y="94" type="line" smooth="yes"/>
      <point x="120" y="65"/>
      <point x="90" y="58"/>
      <point x="48" y="58" type="curve" smooth="yes"/>
      <point x="38" y="58" type="line"/>
      <point x="38" y="0" type="line"/>
      <point x="382" y="0" type="line" smooth="yes"/>
      <point x="555" y="0"/>
      <point x="652" y="76"/>
      <point x="652" y="199" type="curve" smooth="yes"/>
      <point x="652" y="315"/>
      <point x="554" y="382"/>
      <point x="395" y="384" type="curve"/>
      <point x="387" y="365" type="line"/>
      <point x="534" y="367"/>
      <point x="622" y="428"/>
      <point x="622" y="533" type="curve" smooth="yes"/>
      <point x="622" y="642"/>
      <point x="534" y="710"/>
    </contour>
    <contour>
      <point x="349" y="404" type="curve" smooth="yes"/>
      <point x="266" y="404" type="line"/>
      <point x="266" y="643" type="line"/>
      <point x="350" y="643" type="line" smooth="yes"/>
      <point x="436" y="643"/>
      <point x="476" y="601"/>
      <point x="476" y="528" type="curve" smooth="yes"/>
      <point x="476" y="451"/>
      <point x="441" y="404"/>
    </contour>
    <contour>
      <point x="356" y="339" type="line" smooth="yes"/>
      <point x="460" y="339"/>
      <point x="503" y="285"/>
      <point x="503" y="203" type="curve" smooth="yes"/>
      <point x="503" y="114"/>
      <point x="455" y="67"/>
      <point x="358" y="67" type="curve" smooth="yes"/>
      <point x="266" y="67" type="line"/>
      <point x="266" y="339" type="line"/>
    </contour>
  </outline>
</glyph>
<glyph name="L" format="1">
  <advance width="629"/>
  <unicode hex="004C"/>
  <outline>
    <contour>
      <point x="354" y="710" type="line"/>
      <point x="354" y="652" type="line"/>
      <point x="341" y="652" type="line" smooth="yes"/>
      <point x="297" y="652"/>
      <point x="266" y="645"/>
      <point x="266" y="616" type="curve" smooth="yes"/>
      <point x="266" y="69" type="line"/>
      <point x="387" y="69" type="line" smooth="yes"/>
      <point x="470" y="69"/>
      <point x="504" y="76"/>
      <point x="507" y="112" type="curve" smooth="yes"/>
      <point x="517" y="232" type="line"/>
      <point x="592" y="232" type="line"/>
      <point x="592" y="0" type="line"/>
      <point x="38" y="0" type="line"/>
      <point x="38" y="58" type="line"/>
      <point x="48" y="58" type="line" smooth="yes"/>
      <point x="90" y="58"/>
      <point x="120" y="65"/>
      <point x="120" y="94" type="curve" smooth="yes"/>
      <point x="120" y="616" type="line" smooth="yes"/>
      <point x="120" y="645"/>
      <point x="90" y="652"/>
      <point x="48" y="652" type="curve" smooth="yes"/>
      <point x="38" y="652" type="line"/>
      <point x="38" y="710" type="line"/>
    </contour>
    <contour>
      <point x="379" y="741" type="move" name="top"/>
    </contour>
    <contour>
      <point x="471" y="710" type="move" name="right"/>
    </contour>
    <contour>
      <point x="473" y="410" type="move" name="mid"/>
    </contour>
    <contour>
      <point x="379" y="0" type="move" name="bottom"/>
    </contour>
  </outline>
</glyph>
<glyph name="Q" format="1">
  <advance width="800"/>
  <unicode hex="0051"/>
  <outline>
    <contour>
      <point x="357" y="3" type="line"/>
      <point x="352" y="-143"/>
      <point x="442" y="-201"/>
      <point x="584" y="-201" type="curve" smooth="yes"/>
      <point x="637" y="-201"/>
      <point x="687" y="-192"/>
      <point x="729" y="-178" type="curve"/>
      <point x="729" y="-61" type="line"/>
      <point x="686" y="-75"/>
      <point x="638" y="-93"/>
      <point x="568" y="-93" type="curve" smooth="yes"/>
      <point x="489" y="-93"/>
      <point x="436" y="-67"/>
      <point x="440" y="10" type="curve"/>
    </contour>
    <contour>
      <point x="400" y="-10" type="curve" smooth="yes"/>
      <point x="606" y="-10"/>
      <point x="759" y="137"/>
      <point x="759" y="355" type="curve" smooth="yes"/>
      <point x="759" y="573"/>
      <point x="606" y="720"/>
      <point x="400" y="720" type="curve" smooth="yes"/>
      <point x="195" y="720"/>
      <point x="41" y="573"/>
      <point x="41" y="355" type="curve" smooth="yes"/>
      <point x="41" y="137"/>
      <point x="195" y="-10"/>
    </contour>
    <contour>
      <point x="400" y="63" type="curve" smooth="yes"/>
      <point x="279" y="63"/>
      <point x="194" y="171"/>
      <point x="194" y="355" type="curve" smooth="yes"/>
      <point x="194" y="539"/>
      <point x="279" y="647"/>
      <point x="400" y="647" type="curve" smooth="yes"/>
      <point x="521" y="647"/>
      <point x="606" y="539"/>
      <point x="606" y="355" type="curve" smooth="yes"/>
      <point x="606" y="171"/>
      <point x="521" y="63"/>
    </contour>
  </outline>
</glyph>
<glyph name="S" format="1">
  <advance width="626"/>
  <unicode hex="0053"/>
  <outline>
    <contour>
      <point x="333" y="62" type="curve" smooth="yes"/>
      <point x="236" y="62"/>
      <point x="150" y="124"/>
      <point x="117" y="222" type="curve"/>
      <point x="37" y="222" type="line"/>
      <point x="37" y="0" type="line"/>
      <point x="108" y="0" type="line"/>
      <point x="125" y="170" type="line"/>
      <point x="118" y="174"/>
      <point x="94" y="156"/>
      <point x="74" y="177" type="curve"/>
      <point x="121" y="39"/>
      <point x="227" y="-10"/>
      <point x="343" y="-10" type="curve" smooth="yes"/>
      <point x="487" y="-10"/>
      <point x="588" y="73"/>
      <point x="588" y="210" type="curve" smooth="yes"/>
      <point x="588" y="355"/>
      <point x="478" y="398"/>
      <point x="365" y="429" type="curve" smooth="yes"/>
      <point x="268" y="455"/>
      <point x="183" y="475"/>
      <point x="183" y="552" type="curve" smooth="yes"/>
      <point x="183" y="612"/>
      <point x="225" y="649"/>
      <point x="300" y="649" type="curve" smooth="yes"/>
      <point x="376" y="649"/>
      <point x="439" y="603"/>
      <point x="467" y="523" type="curve"/>
      <point x="544" y="523" type="line"/>
      <point x="544" y="710" type="line"/>
      <point x="477" y="710" type="line"/>
      <point x="459" y="565" type="line"/>
      <point x="474" y="559"/>
      <point x="489" y="569"/>
      <point x="504" y="565" type="curve"/>
      <point x="458" y="686"/>
      <point x="383" y="720"/>
      <point x="284" y="720" type="curve" smooth="yes"/>
      <point x="162" y="720"/>
      <point x="59" y="646"/>
      <point x="59" y="524" type="curve" smooth="yes"/>
      <point x="59" y="380"/>
      <point x="168" y="336"/>
      <point x="273" y="306" type="curve" smooth="yes"/>
      <point x="376" y="277"/>
      <point x="460" y="255"/>
      <point x="460" y="167" type="curve" smooth="yes"/>
      <point x="460" y="95"/>
      <point x="412" y="62"/>
    </contour>
    <contour>
      <point x="344" y="741" type="move" name="top"/>
    </contour>
    <contour>
      <point x="344" y="0" type="move" name="bottom"/>
    </contour>
  </outline>
</glyph>
<glyph name="T" format="1">
  <advance width="697"/>
  <unicode hex="0054"/>
  <outline>
    <contour>
      <point x="276" y="94" type="line" smooth="yes"/>
      <point x="276" y="65"/>
      <point x="246" y="58"/>
      <point x="204" y="58" type="curve" smooth="yes"/>
      <point x="189" y="58" type="line"/>
      <point x="189" y="0" type="line"/>
      <point x="508" y="0" type="line"/>
      <point x="508" y="58" type="line"/>
      <point x="493" y="58" type="line" smooth="yes"/>
      <point x="451" y="58"/>
      <point x="421" y="65"/>
      <point x="421" y="94" type="curve" smooth="yes"/>
      <point x="421" y="642" type="line"/>
      <point x="464" y="642" type="line" smooth="yes"/>
      <point x="544" y="642"/>
      <point x="578" y="635"/>
      <point x="580" y="599" type="curve" smooth="yes"/>
      <point x="589" y="496" type="line"/>
      <point x="662" y="496" type="line"/>
      <point x="662" y="710" type="line"/>
      <point x="35" y="710" type="line"/>
      <point x="35" y="496" type="line"/>
      <point x="108" y="496" type="line"/>
      <point x="117" y="599" type="line" smooth="yes"/>
      <point x="119" y="635"/>
      <point x="153" y="642"/>
      <point x="233" y="642" type="curve" smooth="yes"/>
      <point x="276" y="642" type="line"/>
    </contour>
    <contour>
      <point x="339" y="741" type="move" name="top"/>
    </contour>
    <contour>
      <point x="339" y="0" type="move" name="bottom"/>
    </contour>
  </outline>
</glyph>
<glyph name="Z" format="1">
  <advance width="629"/>
  <unicode hex="005A"/>
  <outline>
    <contour>
      <point x="122" y="70" type="line"/>
      <point x="146" y="15" type="line"/>
      <point x="579" y="630" type="line"/>
      <point x="579" y="710" type="line"/>
      <point x="56" y="710" type="line"/>
      <point x="56" y="506" type="line"/>
      <point x="128" y="506" type="line"/>
      <point x="136" y="597" type="line" smooth="yes"/>
      <point x="138" y="633"/>
      <point x="174" y="640"/>
      <point x="249" y="640" type="curve" smooth="yes"/>
      <point x="483" y="640" type="line"/>
      <point x="459" y="683" type="line"/>
      <point x="38" y="84" type="line"/>
      <point x="38" y="0" type="line"/>
      <point x="588" y="0" type="line"/>
      <point x="588" y="222" type="line"/>
      <point x="514" y="222" type="line"/>
      <point x="504" y="113" type="line" smooth="yes"/>
      <point x="501" y="77"/>
      <point x="467" y="70"/>
      <point x="384" y="70" type="curve" smooth="yes"/>
    </contour>
    <contour>
      <point x="329" y="741" type="move" name="top"/>
    </contour>
    <contour>
      <point x="329" y="0" type="move" name="bottom"/>
    </contour>
  </outline>
</glyph>
<glyph name="b" format="1">
  <advance width="659"/>
  <unicode hex="0062"/>
  <outline>
    <contour>
      <point x="476" y="259" type="curve" smooth="yes"/>
      <point x="476" y="141"/>
      <point x="436" y="63"/>
      <point x="355" y="63" type="curve" smooth="yes"/>
      <point x="288" y="63"/>
      <point x="242" y="112"/>
      <point x="204" y="198" type="curve"/>
      <point x="160" y="165" type="line"/>
      <point x="219" y="42"/>
      <point x="276" y="-12"/>
      <point x="382" y="-12" type="curve" smooth="yes"/>
      <point x="523" y="-12"/>
      <point x="619" y="99"/>
      <point x="619" y="259" type="curve" smooth="yes"/>
      <point x="619" y="416"/>
      <point x="528" y="520"/>
      <point x="390" y="520" type="curve" smooth="yes"/>
      <point x="287" y="520"/>
      <point x="235" y="460"/>
      <point x="169" y="338" type="curve"/>
      <point x="205" y="302" type="line"/>
      <point x="245" y="393"/>
      <point x="293" y="445"/>
      <point x="360" y="445" type="curve" smooth="yes"/>
      <point x="436" y="445"/>
      <point x="476" y="375"/>
    </contour>
    <contour>
      <point x="89" y="636" type="curve" smooth="yes"/>
      <point x="89" y="-2" type="line"/>
      <point x="175" y="-2" type="line"/>
      <point x="211" y="106" type="line"/>
      <point x="227" y="117" type="line"/>
      <point x="227" y="733" type="line"/>
      <point x="20" y="733" type="line"/>
      <point x="20" y="677" type="line"/>
      <point x="30" y="675" type="line" smooth="yes"/>
      <point x="71" y="667"/>
      <point x="89" y="661"/>
    </contour>
  </outline>
</glyph>
<glyph name="e" format="1">
  <advance width="569"/>
  <unicode hex="0065"/>
  <outline>
    <contour>
      <point x="313" y="-13" type="curve" smooth="yes"/>
      <point x="425" y="-13"/>
      <point x="492" y="40"/>
      <point x="530" y="111" type="curve"/>
      <point x="474" y="155" type="line"/>
      <point x="447" y="110"/>
      <point x="405" y="58"/>
      <point x="329" y="58" type="curve" smooth="yes"/>
      <point x="235" y="58"/>
      <point x="178" y="127"/>
      <point x="178" y="251" type="curve" smooth="yes"/>
      <point x="178" y="383"/>
      <point x="229" y="451"/>
      <point x="297" y="451" type="curve" smooth="yes"/>
      <point x="369" y="451"/>
      <point x="400" y="399"/>
      <point x="402" y="266" type="curve"/>
      <point x="427" y="293" type="line"/>
      <point x="116" y="293" type="line"/>
      <point x="117" y="228" type="line"/>
      <point x="537" y="228" type="line"/>
      <point x="536" y="423"/>
      <point x="452" y="520"/>
      <point x="295" y="520" type="curve" smooth="yes"/>
      <point x="150" y="520"/>
      <point x="39" y="412"/>
      <point x="39" y="252" type="curve" smooth="yes"/>
      <point x="39" y="89"/>
      <point x="152" y="-13"/>
    </contour>
    <contour>
      <point x="280" y="551" type="move" name="top"/>
    </contour>
    <contour>
      <point x="434" y="1" type="move" name="right"/>
    </contour>
    <contour>
      <point x="301" y="0" type="move" name="bottom"/>
    </contour>
  </outline>
</glyph>
<glyph name="i" format="1">
  <advance width="326"/>
  <unicode hex="0069"/>
  <outline>
    <contour>
      <point x="166" y="599" type="curve" smooth="yes"/>
      <point x="214" y="599"/>
      <point x="246" y="626"/>
      <point x="246" y="672" type="curve" smooth="yes"/>
      <point x="246" y="716"/>
      <point x="214" y="743"/>
      <point x="166" y="743" type="curve" smooth="yes"/>
      <point x="117" y="743"/>
      <point x="85" y="716"/>
      <point x="85" y="672" type="curve" smooth="yes"/>
      <point x="85" y="626"/>
      <point x="117" y="599"/>
    </contour>
    <contour>
      <point x="238" y="510" type="line"/>
      <point x="31" y="510" type="line"/>
      <point x="31" y="453" type="line"/>
      <point x="41" y="451" type="line" smooth="yes"/>
      <point x="82" y="443"/>
      <point x="100" y="437"/>
      <point x="100" y="412" type="curve" smooth="yes"/>
      <point x="100" y="88" type="line" smooth="yes"/>
      <point x="100" y="61"/>
      <point x="71" y="55"/>
      <point x="33" y="55" type="curve" smooth="yes"/>
      <point x="32" y="55" type="line"/>
      <point x="32" y="0" type="line"/>
      <point x="306" y="0" type="line"/>
      <point x="306" y="55" type="line"/>
      <point x="305" y="55" type="line" smooth="yes"/>
      <point x="267" y="55"/>
      <point x="238" y="61"/>
      <point x="238" y="88" type="curve" smooth="yes"/>
    </contour>
    <contour>
      <point x="169" y="551" type="move" name="top"/>
    </contour>
    <contour>
      <point x="215" y="-10" type="move" name="right"/>
    </contour>
    <contour>
      <point x="167" y="-10" type="move" name="bottom"/>
    </contour>
  </outline>
</glyph>
<glyph name="k" format="1">
  <advance width="664"/>
  <unicode hex="006B"/>
  <outline>
    <contour>
      <point x="32" y="0" type="line"/>
      <point x="299" y="0" type="line"/>
      <point x="299" y="55" type="line"/>
      <point x="296" y="55" type="line" smooth="yes"/>
      <point x="274" y="55"/>
      <point x="238" y="57"/>
      <point x="238" y="64" type="curve" smooth="yes"/>
      <point x="238" y="733" type="line"/>
      <point x="31" y="733" type="line"/>
      <point x="31" y="677" type="line"/>
      <point x="41" y="675" type="line" smooth="yes"/>
      <point x="82" y="667"/>
      <point x="100" y="661"/>
      <point x="100" y="636" type="curve" smooth="yes"/>
      <point x="100" y="88" type="line" smooth="yes"/>
      <point x="100" y="61"/>
      <point x="72" y="55"/>
      <point x="33" y="55" type="curve"/>
      <point x="32" y="55" type="line"/>
    </contour>
    <contour>
      <point x="644" y="0" type="line"/>
      <point x="644" y="55" type="line"/>
      <point x="642" y="55" type="line"/>
      <point x="608" y="55"/>
      <point x="580" y="62"/>
      <point x="556" y="91" type="curve" smooth="yes"/>
      <point x="366" y="329" type="line"/>
      <point x="346" y="267" type="line"/>
      <point x="500" y="410" type="line" smooth="yes"/>
      <point x="532" y="439"/>
      <point x="568" y="455"/>
      <point x="608" y="455" type="curve"/>
      <point x="610" y="455" type="line"/>
      <point x="610" y="510" type="line"/>
      <point x="356" y="510" type="line"/>
      <point x="356" y="455" type="line"/>
      <point x="361" y="455" type="line"/>
      <point x="389" y="455"/>
      <point x="438" y="452"/>
      <point x="438" y="437" type="curve"/>
      <point x="262" y="276" type="line"/>
      <point x="262" y="261" type="line"/>
      <point x="418" y="64" type="line"/>
      <point x="418" y="57"/>
      <point x="382" y="55"/>
      <point x="360" y="55" type="curve"/>
      <point x="357" y="55" type="line"/>
      <point x="357" y="0" type="line"/>
    </contour>
    <contour>
      <point x="321" y="0" type="move" name="bottom"/>
    </contour>
  </outline>
</glyph>
<glyph name="r" format="1">
  <advance width="434"/>
  <unicode hex="0072"/>
  <outline>
    <contour>
      <point x="411" y="514" type="line"/>
      <point x="404" y="516"/>
      <point x="390" y="518"/>
      <point x="375" y="518" type="curve" smooth="yes"/>
      <point x="287" y="518"/>
      <point x="241" y="445"/>
      <point x="213" y="344" type="curve"/>
      <point x="221" y="296" type="line"/>
      <point x="252" y="373"/>
      <point x="290" y="398"/>
      <point x="354" y="398" type="curve" smooth="yes"/>
      <point x="374" y="398"/>
      <point x="396" y="395"/>
      <point x="411" y="390" type="curve"/>
    </contour>
    <contour>
      <point x="31" y="0" type="line"/>
      <point x="323" y="0" type="line"/>
      <point x="323" y="55" type="line"/>
      <point x="311" y="55" type="line" smooth="yes"/>
      <point x="284" y="55"/>
      <point x="237" y="57"/>
      <point x="237" y="81" type="curve" smooth="yes"/>
      <point x="237" y="366" type="line"/>
      <point x="227" y="355" type="line"/>
      <point x="227" y="510" type="line"/>
      <point x="31" y="510" type="line"/>
      <point x="31" y="453" type="line"/>
      <point x="40" y="451" type="line" smooth="yes"/>
      <point x="81" y="442"/>
      <point x="99" y="437"/>
      <point x="99" y="412" type="curve" smooth="yes"/>
      <point x="99" y="88" type="line" smooth="yes"/>
      <point x="99" y="61"/>
      <point x="71" y="55"/>
      <point x="33" y="55" type="curve" smooth="yes"/>
      <point x="31" y="55" type="line"/>
    </contour>
    <contour>
      <point x="222" y="545" type="move" name="top"/>
    </contour>
    <contour>
      <point x="169" y="0" type="move" name="bottom"/>
    </contour>
  </outline>
</glyph>
<glyph name="w" format="1">
  <advance width="844"/>
  <unicode hex="0077"/>
  <outline>
    <contour>
      <point x="430" y="384" type="line"/>
      <point x="323" y="0" type="line"/>
      <point x="188" y="0" type="line"/>
      <point x="67" y="424" type="line" smooth="yes"/>
      <point x="60" y="449"/>
      <point x="37" y="455"/>
      <point x="7" y="455" type="curve"/>
      <point x="6" y="455" type="line"/>
      <point x="6" y="510" type="line"/>
      <point x="276" y="510" type="line"/>
      <point x="276" y="455" type="line"/>
      <point x="275" y="455" type="line" smooth="yes"/>
      <point x="236" y="455"/>
      <point x="199" y="453"/>
      <point x="199" y="446" type="curve"/>
      <point x="296" y="80" type="line"/>
      <point x="275" y="58" type="line"/>
      <point x="397" y="510" type="line"/>
      <point x="507" y="510" type="line"/>
      <point x="626" y="81" type="line"/>
      <point x="605" y="60" type="line"/>
      <point x="706" y="434" type="line"/>
      <point x="705" y="447"/>
      <point x="673" y="455"/>
      <point x="634" y="455" type="curve" smooth="yes"/>
      <point x="633" y="455" type="line"/>
      <point x="633" y="510" type="line"/>
      <point x="838" y="510" type="line"/>
      <point x="838" y="455" type="line"/>
      <point x="837" y="455" type="line"/>
      <point x="809" y="455"/>
      <point x="782" y="444"/>
      <point x="773" y="413" type="curve" smooth="yes"/>
      <point x="658" y="0" type="line"/>
      <point x="523" y="0" type="line"/>
      <point x="414" y="388" type="line"/>
    </contour>
    <contour>
      <point x="422" y="551" type="move" name="top"/>
    </contour>
  </outline>
</glyph>
<glyph name="x" format="1">
  <advance width="583"/>
  <unicode hex="0078"/>
  <outline>
    <contour>
      <point x="577" y="0" type="line"/>
      <point x="577" y="54" type="line"/>
      <point x="576" y="54" type="line"/>
      <point x="541" y="54"/>
      <point x="527" y="64"/>
      <point x="507" y="88" type="curve" smooth="yes"/>
      <point x="356" y="278" type="line"/>
      <point x="352" y="282" type="line"/>
      <point x="220" y="447" type="line"/>
      <point x="220" y="453"/>
      <point x="259" y="455"/>
      <point x="293" y="455" type="curve" smooth="yes"/>
      <point x="295" y="455" type="line"/>
      <point x="295" y="510" type="line"/>
      <point x="15" y="510" type="line"/>
      <point x="15" y="454" type="line"/>
      <point x="16" y="454" type="line"/>
      <point x="49" y="454"/>
      <point x="62" y="449"/>
      <point x="78" y="428" type="curve" smooth="yes"/>
      <point x="231" y="236" type="line"/>
      <point x="235" y="233" type="line"/>
      <point x="371" y="63" type="line"/>
      <point x="371" y="56"/>
      <point x="331" y="54"/>
      <point x="295" y="54" type="curve" smooth="yes"/>
      <point x="293" y="54" type="line"/>
      <point x="293" y="0" type="line"/>
    </contour>
    <contour>
      <point x="351" y="245" type="line"/>
      <point x="489" y="410" type="line" smooth="yes"/>
      <point x="516" y="443"/>
      <point x="535" y="455"/>
      <point x="565" y="455" type="curve"/>
      <point x="566" y="455" type="line"/>
      <point x="566" y="510" type="line"/>
      <point x="359" y="510" type="line"/>
      <point x="359" y="455" type="line"/>
      <point x="362" y="455" type="line" smooth="yes"/>
      <point x="392" y="455"/>
      <point x="428" y="447"/>
      <point x="428" y="435" type="curve"/>
      <point x="301" y="282" type="line"/>
    </contour>
    <contour>
      <point x="8" y="0" type="line"/>
      <point x="217" y="0" type="line"/>
      <point x="217" y="54" type="line"/>
      <point x="215" y="54" type="line" smooth="yes"/>
      <point x="183" y="54"/>
      <point x="147" y="62"/>
      <point x="147" y="74" type="curve"/>
      <point x="281" y="236" type="line"/>
      <point x="228" y="270" type="line"/>
      <point x="79" y="92" type="line" smooth="yes"/>
      <point x="57" y="66"/>
      <point x="34" y="54"/>
      <point x="9" y="54" type="curve"/>
      <point x="8" y="54" type="line"/>
    </contour>
  </outline>
</glyph>
<glyph name="dieresis" format="1">
  <advance width="500"/>
  <unicode hex="00A8"/>
  <outline>
    <contour>
      <point x="135" y="590" type="curve" smooth="yes"/>
      <point x="182" y="590"/>
      <point x="213" y="617"/>
      <point x="213" y="662" type="curve" smooth="yes"/>
      <point x="213" y="706"/>
      <point x="182" y="734"/>
      <point x="135" y="734" type="curve" smooth="yes"/>
      <point x="88" y="734"/>
      <point x="56" y="706"/>
      <point x="56" y="662" type="curve" smooth="yes"/>
      <point x="56" y="616"/>
      <point x="88" y="590"/>
    </contour>
    <contour>
      <point x="365" y="590" type="curve" smooth="yes"/>
      <point x="412" y="590"/>
      <point x="444" y="617"/>
      <point x="444" y="662" type="curve" smooth="yes"/>
      <point x="444" y="706"/>
      <point x="412" y="734"/>
      <point x="365" y="734" type="curve" smooth="yes"/>
      <point x="318" y="734"/>
      <point x="287" y="706"/>
      <point x="287" y="662" type="curve" smooth="yes"/>
      <point x="287" y="616"/>
      <point x="318" y="590"/>
    </contour>
    <contour>
      <point x="250" y="526" type="move" name="_top"/>
    </contour>
  </outline>
</glyph>
<glyph name="acute" format="1">
  <advance width="500"/>
  <unicode hex="00B4"/>
  <outline>
    <contour>
      <point x="227" y="698" type="curve" smooth="yes"/>
      <point x="189" y="586" type="line"/>
      <point x="189" y="562" type="line"/>
      <point x="232" y="562" type="line"/>
      <point x="312" y="640" type="line" smooth="yes"/>
      <point x="342" y="664"/>
      <point x="357" y="690"/>
      <point x="357" y="717" type="curve" smooth="yes"/>
      <point x="357" y="745"/>
      <point x="335" y="767"/>
      <point x="301" y="767" type="curve" smooth="yes"/>
      <point x="264" y="767"/>
      <point x="241" y="743"/>
    </contour>
    <contour>
      <point x="217" y="527" type="move" name="_top"/>
    </contour>
  </outline>
</glyph>
<glyph name="paragraph" format="1">
  <advance width="630"/>
  <unicode hex="00B6"/>
  <outline>
    <contour>
      <point x="599" y="710" type="line"/>
      <point x="599" y="652" type="line"/>
      <point x="588" y="652" type="line" smooth="yes"/>
      <point x="547" y="652"/>
      <point x="516" y="645"/>
      <point x="516" y="616" type="curve" smooth="yes"/>
      <point x="516" y="0" type="line"/>
      <point x="429" y="0" type="line"/>
      <point x="429" y="710" type="line"/>
    </contour>
    <contour>
      <point x="341" y="0" type="line"/>
      <point x="254" y="0" type="line"/>
      <point x="254" y="326" type="line"/>
      <point x="249" y="326" type="line" smooth="yes"/>
      <point x="117" y="326"/>
      <point x="36" y="408"/>
      <point x="36" y="524" type="curve" smooth="yes"/>
      <point x="36" y="637"/>
      <point x="113" y="710"/>
      <point x="244" y="710" type="curve" smooth="yes"/>
      <point x="341" y="710" type="line"/>
    </contour>
    <contour>
      <point x="459" y="710" type="line"/>
      <point x="459" y="652" type="line"/>
      <point x="294" y="652" type="line"/>
      <point x="294" y="710" type="line"/>
    </contour>
  </outline>
</glyph>
<glyph name="Oslash" format="1">
  <advance width="800"/>
  <unicode hex="00D8"/>
  <outline>
    <contour>
      <point x="689" y="725" type="line"/>
      <point x="-1" y="-15" type="line"/>
      <point x="95" y="-15" type="line"/>
      <point x="786" y="725" type="line"/>
    </contour>
    <contour>
      <point x="400" y="-10" type="curve" smooth="yes"/>
      <point x="606" y="-10"/>
      <point x="759" y="137"/>
      <point x="759" y="355" type="curve" smooth="yes"/>
      <point x="759" y="574"/>
      <point x="599" y="720"/>
      <point x="400" y="720" type="curve" smooth="yes"/>
      <point x="195" y="720"/>
      <point x="41" y="574"/>
      <point x="41" y="355" type="curve" smooth="yes"/>
      <point x="41" y="137"/>
      <point x="202" y="-10"/>
    </contour>
    <contour>
      <point x="399" y="63" type="curve" smooth="yes"/>
      <point x="266" y="63"/>
      <point x="189" y="155"/>
      <point x="189" y="355" type="curve" smooth="yes"/>
      <point x="189" y="539"/>
      <point x="276" y="647"/>
      <point x="402" y="647" type="curve" smooth="yes"/>
      <point x="534" y="647"/>
      <point x="611" y="555"/>
      <point x="611" y="355" type="curve" smooth="yes"/>
      <point x="611" y="171"/>
      <point x="524" y="63"/>
    </contour>
    <contour>
      <point x="396" y="731" type="move" name="top"/>
    </contour>
  </outline>
</glyph>
<glyph name="eogonek" format="1">
  <advance width="569"/>
  <unicode hex="0119"/>
  <outline>
    <contour>
      <point x="417" y="37" type="line"/>
      <point x="290" y="-18"/>
      <point x="216" y="-69"/>
      <point x="216" y="-142" type="curve" smooth="yes"/>
      <point x="216" y="-204"/>
      <point x="265" y="-239"/>
      <point x="336" y="-239" type="curve" smooth="yes"/>
      <point x="398" y="-239"/>
      <point x="431" y="-216"/>
      <point x="459" y="-182" type="curve"/>
      <point x="424" y="-143" type="line"/>
      <point x="412" y="-154"/>
      <point x="395" y="-171"/>
      <point x="371" y="-171" type="curve" smooth="yes"/>
      <point x="348" y="-171"/>
      <point x="332" y="-156"/>
      <point x="332" y="-125" type="curve" smooth="yes"/>
      <point x="332" y="-74"/>
      <point x="368" y="-39"/>
      <point x="456" y="27" type="curve" smooth="yes"/>
      <point x="493" y="55"/>
      <point x="513" y="78"/>
      <point x="530" y="111" type="curve"/>
      <point x="474" y="155" type="line"/>
      <point x="447" y="110"/>
      <point x="405" y="58"/>
      <point x="329" y="58" type="curve" smooth="yes"/>
      <point x="234" y="58"/>
      <point x="178" y="127"/>
      <point x="178" y="251" type="curve" smooth="yes"/>
      <point x="178" y="383"/>
      <point x="229" y="451"/>
      <point x="297" y="451" type="curve" smooth="yes"/>
      <point x="369" y="451"/>
      <point x="400" y="399"/>
      <point x="402" y="266" type="curve"/>
      <point x="427" y="293" type="line"/>
      <point x="117" y="293" type="line"/>
      <point x="117" y="228" type="line"/>
      <point x="537" y="228" type="line"/>
      <point x="536" y="423"/>
      <point x="452" y="520"/>
      <point x="295" y="520" type="curve" smooth="yes"/>
      <point x="150" y="520"/>
      <point x="39" y="412"/>
      <point x="39" y="252" type="curve" smooth="yes"/>
      <point x="39" y="89"/>
      <point x="152" y="-13"/>
      <point x="313" y="-13" type="curve" smooth="yes"/>
      <point x="357" y="-13"/>
      <point x="393" y="-5"/>
      <point x="424" y="9" type="curve"/>
    </contour>
  </outline>
</glyph>
<glyph name="dotlessi" format="1">
  <advance width="326"/>
  <unicode hex="0131"/>
  <outline>
    <contour>
      <point x="238" y="510" type="line"/>
      <point x="31" y="510" type="line"/>
      <point x="31" y="453" type="line"/>
      <point x="41" y="451" type="line" smooth="yes"/>
      <point x="82" y="443"/>
      <point x="100" y="437"/>
      <point x="100" y="412" type="curve" smooth="yes"/>
      <point x="100" y="88" type="line" smooth="yes"/>
      <point x="100" y="61"/>
      <point x="71" y="55"/>
      <point x="33" y="55" type="curve" smooth="yes"/>
      <point x="32" y="55" type="line"/>
      <point x="32" y="0" type="line"/>
      <point x="306" y="0" type="line"/>
      <point x="306" y="55" type="line"/>
      <point x="305" y="55" type="line" smooth="yes"/>
      <point x="267" y="55"/>
      <point x="238" y="61"/>
      <point x="238" y="88" type="curve" smooth="yes"/>
    </contour>
    <contour>
      <point x="171" y="536" type="move" name="top"/>
    </contour>
  </outline>
</glyph>
<glyph name="Ldot" format="1">
  <advance width="641"/>
  <unicode hex="013F"/>
  <outline>
    <contour>
      <point x="354" y="710" type="line"/>
      <point x="354" y="652" type="line"/>
      <point x="341" y="652" type="line" smooth="yes"/>
      <point x="297" y="652"/>
      <point x="266" y="645"/>
      <point x="266" y="616" type="curve" smooth="yes"/>
      <point x="266" y="69" type="line"/>
      <point x="387" y="69" type="line" smooth="yes"/>
      <point x="470" y="69"/>
      <point x="504" y="76"/>
      <point x="507" y="112" type="curve" smooth="yes"/>
      <point x="517" y="227" type="line"/>
      <point x="592" y="227" type="line"/>
      <point x="592" y="0" type="line"/>
      <point x="38" y="0" type="line"/>
      <point x="38" y="58" type="line"/>
      <point x="48" y="58" type="line" smooth="yes"/>
      <point x="90" y="58"/>
      <point x="120" y="65"/>
      <point x="120" y="94" type="curve" smooth="yes"/>
      <point x="120" y="616" type="line" smooth="yes"/>
      <point x="120" y="645"/>
      <point x="90" y="652"/>
      <point x="48" y="652" type="curve" smooth="yes"/>
      <point x="38" y="652" type="line"/>
      <point x="38" y="710" type="line"/>
    </contour>
    <component base="periodcentered" xOffset="375" yOffset="53"/>
  </outline>
</glyph>
<glyph name="lslash" format="1">
  <advance width="341"/>
  <unicode hex="0142"/>
  <outline>
    <contour>
      <point x="28" y="189" type="line"/>
      <point x="329" y="446" type="line"/>
      <point x="329" y="526" type="line"/>
      <point x="28" y="269" type="line"/>
    </contour>
    <component base="l" xOffset="11"/>
  </outline>
</glyph>
<glyph name="Tbar" format="1">
  <advance width="697"/>
  <unicode hex="0166"/>
  <outline>
    <contour>
      <point x="128" y="371" type="line"/>
      <point x="128" y="304" type="line"/>
      <point x="569" y="304" type="line"/>
      <point x="569" y="371" type="line"/>
    </contour>
    <component base="T"/>
  </outline>
</glyph>
<glyph name="Uhorn" format="1">
  <advance width="827"/>
  <unicode hex="01AF"/>
  <outline>
    <contour>
      <point x="511" y="710" type="line"/>
      <point x="511" y="652" type="line"/>
      <point x="519" y="652" type="line" smooth="yes"/>
      <point x="552" y="652"/>
      <point x="593" y="645"/>
      <point x="593" y="631" type="curve" smooth="yes"/>
      <point x="593" y="274" type="line" smooth="yes"/>
      <point x="593" y="125"/>
      <point x="525" y="73"/>
      <point x="429" y="73" type="curve" smooth="yes"/>
      <point x="328" y="73"/>
      <point x="264" y="123"/>
      <point x="264" y="274" type="curve" smooth="yes"/>
      <point x="264" y="642" type="line" smooth="yes"/>
      <point x="264" y="649"/>
      <point x="305" y="652"/>
      <point x="337" y="652" type="curve" smooth="yes"/>
      <point x="346" y="652" type="line"/>
      <point x="346" y="710" type="line"/>
      <point x="36" y="710" type="line"/>
      <point x="36" y="652" type="line"/>
      <point x="46" y="652" type="line" smooth="yes"/>
      <point x="88" y="652"/>
      <point x="118" y="645"/>
      <point x="118" y="616" type="curve" smooth="yes"/>
      <point x="118" y="274" type="line" smooth="yes"/>
      <point x="118" y="73"/>
      <point x="234" y="-10"/>
      <point x="401" y="-10" type="curve" smooth="yes"/>
      <point x="550" y="-10"/>
      <point x="669" y="71"/>
      <point x="669" y="274" type="curve" smooth="yes"/>
      <point x="669" y="613" type="line" smooth="yes"/>
      <point x="669" y="639"/>
      <point x="686" y="651"/>
      <point x="715" y="656" type="curve" smooth="yes"/>
      <point x="806" y="672"/>
      <point x="867" y="733"/>
      <point x="867" y="877" type="curve"/>
      <point x="756" y="877" type="line"/>
      <point x="755" y="747"/>
      <point x="746" y="710"/>
      <point x="610" y="710" type="curve" smooth="yes"/>
    </contour>
    <contour>
      <point x="417" y="663" type="move" name="top"/>
    </contour>
  </outline>
</glyph>
<glyph name="ogonek" format="1">
  <advance width="600"/>
  <unicode hex="02DB"/>
  <outline>
    <contour>
      <point x="381" y="38" type="line"/>
      <point x="256" y="-16"/>
      <point x="183" y="-69"/>
      <point x="183" y="-143" type="curve" smooth="yes"/>
      <point x="183" y="-204"/>
      <point x="232" y="-239"/>
      <point x="303" y="-239" type="curve" smooth="yes"/>
      <point x="364" y="-239"/>
      <point x="398" y="-216"/>
      <point x="426" y="-182" type="curve"/>
      <point x="391" y="-143" type="line"/>
      <point x="379" y="-154"/>
      <point x="361" y="-171"/>
      <point x="338" y="-171" type="curve" smooth="yes"/>
      <point x="315" y="-171"/>
      <point x="299" y="-156"/>
      <point x="299" y="-125" type="curve" smooth="yes"/>
      <point x="299" y="-87"/>
      <point x="323" y="-39"/>
      <point x="416" y="10" type="curve"/>
    </contour>
    <contour>
      <point x="356" y="9" type="move" name="_right"/>
    </contour>
  </outline>
</glyph>
<glyph name="ogonekcomb" format="1">
  <advance width="0"/>
  <unicode hex="033D"/>
  <outline>
    <component base="ogonek" xOffset="-621"/>
    <contour>
      <point x="-275" y="9" type="move" name="_right"/>
    </contour>
  </outline>
</glyph>
<glyph name="pi" format="1">
  <advance width="777"/>
  <unicode hex="03C0"/>
  <outline>
    <contour>
      <point x="339" y="0" type="line"/>
      <point x="339" y="469" type="line"/>
      <point x="250" y="469" type="line"/>
      <point x="240" y="204"/>
      <point x="214" y="180"/>
      <point x="214" y="0" type="curve"/>
    </contour>
    <contour>
      <point x="712" y="403" type="line"/>
      <point x="712" y="510" type="line"/>
      <point x="267" y="510" type="line" smooth="yes"/>
      <point x="133" y="510"/>
      <point x="62" y="435"/>
      <point x="34" y="329" type="curve"/>
      <point x="112" y="290" type="line"/>
      <point x="134" y="360"/>
      <point x="168" y="403"/>
      <point x="247" y="403" type="curve" smooth="yes"/>
    </contour>
    <contour>
      <point x="587" y="120" type="curve" smooth="yes"/>
      <point x="587" y="469" type="line"/>
      <point x="494" y="469" type="line"/>
      <point x="483" y="252"/>
      <point x="461" y="186"/>
      <point x="461" y="120" type="curve" smooth="yes"/>
      <point x="461" y="29"/>
      <point x="517" y="-10"/>
      <point x="598" y="-10" type="curve" smooth="yes"/>
      <point x="672" y="-10"/>
      <point x="716" y="36"/>
      <point x="740" y="100" type="curve"/>
      <point x="686" y="133" type="line"/>
      <point x="670" y="98"/>
      <point x="650" y="71"/>
      <point x="623" y="71" type="curve" smooth="yes"/>
      <point x="599" y="71"/>
      <point x="587" y="84"/>
    </contour>
  </outline>
</glyph>
<glyph name="franc" format="1">
  <advance width="560"/>
  <unicode hex="20A3"/>
  <outline>
    <contour>
      <point x="231" y="408" type="line"/>
      <point x="231" y="348" type="line"/>
      <point x="457" y="339" type="line"/>
      <point x="457" y="418" type="line"/>
    </contour>
    <contour>
      <point x="260" y="642" type="line"/>
      <point x="344" y="642" type="line" smooth="yes"/>
      <point x="418" y="642"/>
      <point x="453" y="635"/>
      <point x="457" y="599" type="curve" smooth="yes"/>
      <point x="465" y="521" type="line"/>
      <point x="532" y="521" type="line"/>
      <point x="532" y="710" type="line"/>
      <point x="34" y="710" type="line"/>
      <point x="34" y="652" type="line"/>
      <point x="46" y="652" type="line" smooth="yes"/>
      <point x="87" y="652"/>
      <point x="117" y="645"/>
      <point x="117" y="616" type="curve" smooth="yes"/>
      <point x="117" y="94" type="line" smooth="yes"/>
      <point x="117" y="65"/>
      <point x="87" y="58"/>
      <point x="46" y="58" type="curve" smooth="yes"/>
      <point x="34" y="58" type="line"/>
      <point x="34" y="0" type="line"/>
      <point x="360" y="0" type="line"/>
      <point x="360" y="58" type="line"/>
      <point x="345" y="58" type="line" smooth="yes"/>
      <point x="305" y="58"/>
      <point x="260" y="59"/>
      <point x="260" y="94" type="curve" smooth="yes"/>
    </contour>
    <contour>
      <point x="34" y="238" type="line"/>
      <point x="34" y="176" type="line"/>
      <point x="377" y="176" type="line"/>
      <point x="377" y="238" type="line"/>
    </contour>
  </outline>
</glyph>
<glyph name="uni20B4" format="1">
  <advance width="560"/>
  <unicode hex="20B4"/>
  <outline>
    <contour>
      <point x="17" y="468" type="line"/>
      <point x="17" y="405" type="line"/>
      <point x="543" y="405" type="line"/>
      <point x="543" y="468" type="line"/>
    </contour>
    <contour>
      <point x="17" y="322" type="line"/>
      <point x="17" y="259" type="line"/>
      <point x="543" y="259" type="line"/>
      <point x="543" y="322" type="line"/>
    </contour>
    <contour>
      <point x="295" y="720" type="curve" smooth="yes"/>
      <point x="193" y="720"/>
      <point x="117" y="681"/>
      <point x="87" y="658" type="curve"/>
      <point x="87" y="542" type="line"/>
      <point x="193" y="542" type="line"/>
      <point x="193" y="642" type="line"/>
      <point x="164" y="642"/>
      <point x="142" y="607"/>
      <point x="151" y="587" type="curve"/>
      <point x="178" y="623"/>
      <point x="222" y="648"/>
      <point x="280" y="648" type="curve" smooth="yes"/>
      <point x="351" y="648"/>
      <point x="377" y="614"/>
      <point x="377" y="569" type="curve" smooth="yes"/>
      <point x="377" y="517"/>
      <point x="342" y="474"/>
      <point x="283" y="444" type="curve"/>
      <point x="435" y="426" type="line"/>
      <point x="474" y="457"/>
      <point x="499" y="505"/>
      <point x="499" y="565" type="curve" smooth="yes"/>
      <point x="499" y="657"/>
      <point x="431" y="720"/>
    </contour>
    <contour>
      <point x="292" y="-10" type="curve" smooth="yes"/>
      <point x="401" y="-10"/>
      <point x="486" y="36"/>
      <point x="519" y="59" type="curve"/>
      <point x="519" y="194" type="line"/>
      <point x="407" y="194" type="line"/>
      <point x="407" y="70" type="line"/>
      <point x="435" y="70"/>
      <point x="459" y="121"/>
      <point x="452" y="127" type="curve"/>
      <point x="413" y="88"/>
      <point x="369" y="63"/>
      <point x="304" y="63" type="curve" smooth="yes"/>
      <point x="237" y="63"/>
      <point x="194" y="90"/>
      <point x="194" y="157" type="curve" smooth="yes"/>
      <point x="194" y="209"/>
      <point x="226" y="266"/>
      <point x="294" y="293" type="curve"/>
      <point x="124" y="292" type="line"/>
      <point x="90" y="271"/>
      <point x="69" y="224"/>
      <point x="69" y="168" type="curve" smooth="yes"/>
      <point x="69" y="53"/>
      <point x="153" y="-10"/>
    </contour>
  </outline>
</glyph>
<glyph name="litre" format="1">
  <advance width="536"/>
  <unicode hex="2113"/>
  <outline>
    <contour>
      <point x="262" y="245" type="curve" smooth="yes"/>
      <point x="262" y="534"/>
      <point x="304" y="647"/>
      <point x="358" y="647" type="curve" smooth="yes"/>
      <point x="390" y="647"/>
      <point x="400" y="621"/>
      <point x="400" y="569" type="curve" smooth="yes"/>
      <point x="400" y="406"/>
      <point x="278" y="312"/>
      <point x="34" y="240" type="curve"/>
      <point x="49" y="186" type="line"/>
      <point x="304" y="261"/>
      <point x="491" y="392"/>
      <point x="491" y="568" type="curve" smooth="yes"/>
      <point x="491" y="646"/>
      <point x="448" y="710"/>
      <point x="358" y="710" type="curve" smooth="yes"/>
      <point x="227" y="710"/>
      <point x="137" y="558"/>
      <point x="137" y="246" type="curve" smooth="yes"/>
      <point x="137" y="58"/>
      <point x="207" y="-10"/>
      <point x="317" y="-10" type="curve" smooth="yes"/>
      <point x="408" y="-10"/>
      <point x="461" y="62"/>
      <point x="487" y="145" type="curve"/>
      <point x="432" y="171" type="line"/>
      <point x="409" y="103"/>
      <point x="379" y="56"/>
      <point x="334" y="56" type="curve" smooth="yes"/>
      <point x="293" y="56"/>
      <point x="262" y="87"/>
    </contour>
  </outline>
</glyph>
<glyph name="servicemark" format="1">
  <advance width="886"/>
  <unicode hex="2120"/>
  <outline>
    <contour>
      <point x="389" y="387" type="line"/>
      <point x="506" y="387" type="line"/>
      <point x="506" y="426" type="line"/>
      <point x="504" y="426" type="line" smooth="yes"/>
      <point x="494" y="426"/>
      <point x="476" y="428"/>
      <point x="476" y="431" type="curve" smooth="yes"/>
      <point x="476" y="702" type="line"/>
      <point x="468" y="701" type="line"/>
      <point x="562" y="386" type="line"/>
      <point x="623" y="386" type="line"/>
      <point x="720" y="700" type="line"/>
      <point x="711" y="701" type="line"/>
      <point x="711" y="431" type="line" smooth="yes"/>
      <point x="711" y="428"/>
      <point x="696" y="426"/>
      <point x="684" y="426" type="curve" smooth="yes"/>
      <point x="681" y="426" type="line"/>
      <point x="681" y="387" type="line"/>
      <point x="832" y="387" type="line"/>
      <point x="832" y="426" type="line"/>
      <point x="826" y="426" type="line" smooth="yes"/>
      <point x="807" y="426"/>
      <point x="794" y="430"/>
      <point x="794" y="443" type="curve" smooth="yes"/>
      <point x="794" y="655" type="line" smooth="yes"/>
      <point x="794" y="669"/>
      <point x="807" y="671"/>
      <point x="826" y="671" type="curve" smooth="yes"/>
      <point x="832" y="671" type="line"/>
      <point x="832" y="710" type="line"/>
      <point x="673" y="710" type="line"/>
      <point x="590" y="428" type="line"/>
      <point x="619" y="450" type="line"/>
      <point x="550" y="710" type="line"/>
      <point x="389" y="710" type="line"/>
      <point x="389" y="671" type="line"/>
      <point x="395" y="671" type="line" smooth="yes"/>
      <point x="413" y="671"/>
      <point x="427" y="669"/>
      <point x="427" y="655" type="curve" smooth="yes"/>
      <point x="427" y="443" type="line" smooth="yes"/>
      <point x="427" y="430"/>
      <point x="413" y="426"/>
      <point x="395" y="426" type="curve"/>
      <point x="389" y="426" type="line"/>
    </contour>
    <contour>
      <point x="221" y="423" type="curve" smooth="yes"/>
      <point x="170" y="423"/>
      <point x="134" y="455"/>
      <point x="119" y="495" type="curve"/>
      <point x="71" y="495" type="line"/>
      <point x="71" y="383" type="line"/>
      <point x="112" y="383" type="line"/>
      <point x="119" y="466" type="line"/>
      <point x="112" y="472"/>
      <point x="100" y="465"/>
      <point x="92" y="478" type="curve"/>
      <point x="108" y="410"/>
      <point x="155" y="379"/>
      <point x="226" y="379" type="curve" smooth="yes"/>
      <point x="295" y="379"/>
      <point x="347" y="414"/>
      <point x="347" y="486" type="curve" smooth="yes"/>
      <point x="347" y="547"/>
      <point x="307" y="574"/>
      <point x="232" y="592" type="curve" smooth="yes"/>
      <point x="190" y="603"/>
      <point x="152" y="610"/>
      <point x="152" y="640" type="curve" smooth="yes"/>
      <point x="152" y="662"/>
      <point x="170" y="675"/>
      <point x="202" y="675" type="curve" smooth="yes"/>
      <point x="240" y="675"/>
      <point x="267" y="652"/>
      <point x="281" y="622" type="curve"/>
      <point x="327" y="622" type="line"/>
      <point x="327" y="715" type="line"/>
      <point x="288" y="715" type="line"/>
      <point x="279" y="644" type="line"/>
      <point x="289" y="636"/>
      <point x="298" y="642"/>
      <point x="305" y="642" type="curve"/>
      <point x="285" y="700"/>
      <point x="244" y="719"/>
      <point x="194" y="719" type="curve" smooth="yes"/>
      <point x="129" y="719"/>
      <point x="82" y="685"/>
      <point x="82" y="625" type="curve" smooth="yes"/>
      <point x="82" y="554"/>
      <point x="139" y="533"/>
      <point x="195" y="518" type="curve" smooth="yes"/>
      <point x="254" y="502"/>
      <point x="275" y="491"/>
      <point x="275" y="463" type="curve" smooth="yes"/>
      <point x="275" y="437"/>
      <point x="256" y="423"/>
    </contour>
  </outline>
</glyph>
<glyph name="radical" format="1">
  <advance width="647"/>
  <unicode hex="221A"/>
  <outline>
    <contour>
      <point x="62" y="312" type="line"/>
      <point x="246" y="312" type="line"/>
      <point x="147" y="349" type="line"/>
      <point x="262" y="0" type="line"/>
      <point x="370" y="0" type="line"/>
      <point x="374" y="38" type="line"/>
      <point x="263" y="389" type="line"/>
      <point x="62" y="389" type="line"/>
    </contour>
    <contour>
      <point x="544" y="710" type="line"/>
      <point x="321" y="0" type="line"/>
      <point x="403" y="0" type="line"/>
      <point x="631" y="710" type="line"/>
    </contour>
  </outline>
</glyph>
<glyph name="Omega" format="1">
  <advance width="830"/>
  <unicode hex="A7B6"/>
  <outline>
    <contour>
      <point x="415" y="720" type="curve" smooth="yes"/>
      <point x="617" y="720"/>
      <point x="747" y="598"/>
      <point x="747" y="441" type="curve" smooth="yes"/>
      <point x="747" y="284"/>
      <point x="600" y="163"/>
      <point x="498" y="65" type="curve"/>
      <point x="506" y="97" type="line"/>
      <point x="602" y="97" type="line" smooth="yes"/>
      <point x="675" y="97"/>
      <point x="706" y="104"/>
      <point x="711" y="140" type="curve" smooth="yes"/>
      <point x="720" y="206" type="line"/>
      <point x="788" y="206" type="line"/>
      <point x="788" y="0" type="line"/>
      <point x="465" y="0" type="line"/>
      <point x="465" y="116" type="line"/>
      <point x="532" y="212"/>
      <point x="606" y="298"/>
      <point x="606" y="438" type="curve" smooth="yes"/>
      <point x="606" y="568"/>
      <point x="537" y="647"/>
      <point x="415" y="647" type="curve" smooth="yes"/>
      <point x="293" y="647"/>
      <point x="224" y="568"/>
      <point x="224" y="438" type="curve" smooth="yes"/>
      <point x="224" y="298"/>
      <point x="298" y="212"/>
      <point x="365" y="116" type="curve"/>
      <point x="365" y="0" type="line"/>
      <point x="42" y="0" type="line"/>
      <point x="42" y="206" type="line"/>
      <point x="110" y="206" type="line"/>
      <point x="119" y="140" type="line" smooth="yes"/>
      <point x="124" y="104"/>
      <point x="155" y="97"/>
      <point x="229" y="97" type="curve" smooth="yes"/>
      <point x="324" y="97" type="line"/>
      <point x="332" y="65" type="line"/>
      <point x="230" y="163"/>
      <point x="84" y="284"/>
      <point x="84" y="441" type="curve" smooth="yes"/>
      <point x="84" y="598"/>
      <point x="213" y="720"/>
    </contour>
  </outline>
</glyph>
<glyph name="f_f" format="1">
  <advance width="748"/>
  <unicode hex="FB00"/>
  <outline>
    <contour>
      <point x="26" y="510" type="line"/>
      <point x="26" y="444" type="line"/>
      <point x="399" y="444" type="line"/>
      <point x="399" y="510" type="line"/>
    </contour>
    <contour>
      <point x="368" y="510" type="line"/>
      <point x="368" y="444" type="line"/>
      <point x="739" y="444" type="line"/>
      <point x="739" y="510" type="line"/>
    </contour>
    <contour>
      <point x="257" y="64" type="curve"/>
      <point x="257" y="564" type="line" smooth="yes"/>
      <point x="257" y="649"/>
      <point x="290" y="670"/>
      <point x="336" y="670" type="curve" smooth="yes"/>
      <point x="361" y="670"/>
      <point x="384" y="662"/>
      <point x="399" y="656" type="curve"/>
      <point x="399" y="727" type="line"/>
      <point x="383" y="733"/>
      <point x="351" y="738"/>
      <point x="319" y="738" type="curve" smooth="yes"/>
      <point x="216" y="738"/>
      <point x="120" y="692"/>
      <point x="120" y="548" type="curve" smooth="yes"/>
      <point x="120" y="89" type="line" smooth="yes"/>
      <point x="120" y="63"/>
      <point x="92" y="55"/>
      <point x="46" y="55" type="curve" smooth="yes"/>
      <point x="35" y="55" type="line"/>
      <point x="35" y="0" type="line"/>
      <point x="326" y="0" type="line"/>
      <point x="326" y="55" type="line"/>
      <point x="323" y="55" type="line" smooth="yes"/>
      <point x="284" y="55"/>
      <point x="257" y="57"/>
    </contour>
    <contour>
      <point x="462" y="64" type="line"/>
      <point x="462" y="57"/>
      <point x="435" y="55"/>
      <point x="393" y="55" type="curve" smooth="yes"/>
      <point x="384" y="55" type="line"/>
      <point x="384" y="0" type="line"/>
      <point x="695" y="0" type="line"/>
      <point x="695" y="55" type="line"/>
      <point x="683" y="55" type="line" smooth="yes"/>
      <point x="638" y="55"/>
      <point x="600" y="57"/>
      <point x="600" y="64" type="curve" smooth="yes"/>
      <point x="600" y="565" type="line" smooth="yes"/>
      <point x="600" y="659"/>
      <point x="640" y="682"/>
      <point x="697" y="682" type="curve" smooth="yes"/>
      <point x="728" y="682"/>
      <point x="754" y="674"/>
      <point x="772" y="668" type="curve"/>
      <point x="772" y="739" type="line"/>
      <point x="754" y="745"/>
      <point x="718" y="750"/>
      <point x="680" y="750" type="curve" smooth="yes"/>
      <point x="566" y="750"/>
      <point x="462" y="705"/>
      <point x="462" y="561" type="curve"/>
    </contour>
  </outline>
</glyph>
<glyph name="E.alt" format="1">
  <advance width="643"/>
  <outline>
    <contour>
      <point x="594" y="215" type="line"/>
      <point x="521" y="215" type="line"/>
      <point x="512" y="112" type="line" smooth="yes"/>
      <point x="508" y="76"/>
      <point x="474" y="69"/>
      <point x="392" y="69" type="curve" smooth="yes"/>
      <point x="265" y="69" type="line"/>
      <point x="265" y="641" type="line"/>
      <point x="372" y="641" type="line" smooth="yes"/>
      <point x="447" y="641"/>
      <point x="482" y="634"/>
      <point x="486" y="598" type="curve" smooth="yes"/>
      <point x="493" y="520" type="line"/>
      <point x="565" y="520" type="line"/>
      <point x="565" y="710" type="line"/>
      <point x="38" y="710" type="line"/>
      <point x="38" y="652" type="line"/>
      <point x="48" y="652" type="line" smooth="yes"/>
      <point x="90" y="652"/>
      <point x="120" y="645"/>
      <point x="120" y="616" type="curve" smooth="yes"/>
      <point x="120" y="94" type="line" smooth="yes"/>
      <point x="120" y="65"/>
      <point x="90" y="58"/>
      <point x="48" y="58" type="curve" smooth="yes"/>
      <point x="38" y="58" type="line"/>
      <point x="38" y="0" type="line"/>
      <point x="594" y="0" type="line"/>
    </contour>
    <contour>
      <point x="219" y="397" type="line"/>
      <point x="219" y="331" type="line"/>
      <point x="442" y="331" type="line"/>
      <point x="442" y="397" type="line"/>
    </contour>
    <contour>
      <point x="472" y="267" type="line"/>
      <point x="472" y="463" type="line"/>
      <point x="415" y="463" type="line"/>
      <point x="415" y="457" type="line" smooth="yes"/>
      <point x="415" y="425"/>
      <point x="406" y="397"/>
      <point x="377" y="397" type="curve"/>
      <point x="377" y="331" type="line"/>
      <point x="406" y="331"/>
      <point x="415" y="303"/>
      <point x="415" y="273" type="curve" smooth="yes"/>
      <point x="415" y="267" type="line"/>
    </contour>
  </outline>
</glyph>
<glyph name="Euro.proportional" format="1">
  <advance width="698"/>
  <outline>
    <contour>
      <point x="29" y="458" type="line"/>
      <point x="29" y="392" type="line"/>
      <point x="453" y="392" type="line"/>
      <point x="453" y="458" type="line"/>
    </contour>
    <contour>
      <point x="29" y="298" type="line"/>
      <point x="29" y="231" type="line"/>
      <point x="409" y="231" type="line"/>
      <point x="409" y="298" type="line"/>
    </contour>
    <contour>
      <point x="247" y="355" type="curve"/>
      <point x="247" y="533"/>
      <point x="318" y="647"/>
      <point x="438" y="647" type="curve" smooth="yes"/>
      <point x="502" y="647"/>
      <point x="545" y="621"/>
      <point x="576" y="568" type="curve"/>
      <point x="582" y="601"/>
      <point x="555" y="642"/>
      <point x="529" y="647" type="curve"/>
      <point x="529" y="511" type="line"/>
      <point x="648" y="511" type="line"/>
      <point x="648" y="658" type="line"/>
      <point x="622" y="679"/>
      <point x="547" y="720"/>
      <point x="434" y="720" type="curve" smooth="yes"/>
      <point x="237" y="720"/>
      <point x="101" y="576"/>
      <point x="101" y="355" type="curve"/>
      <point x="101" y="135"/>
      <point x="230" y="-10"/>
      <point x="413" y="-10" type="curve" smooth="yes"/>
      <point x="553" y="-10"/>
      <point x="640" y="88"/>
      <point x="670" y="222" type="curve"/>
      <point x="601" y="248" type="line"/>
      <point x="578" y="144"/>
      <point x="519" y="63"/>
      <point x="429" y="63" type="curve" smooth="yes"/>
      <point x="313" y="63"/>
      <point x="247" y="175"/>
    </contour>
  </outline>
</glyph>
<glyph name="F.alt" format="1">
  <advance width="608"/>
  <outline>
    <contour>
      <point x="214" y="387" type="line"/>
      <point x="214" y="321" type="line"/>
      <point x="457" y="321" type="line"/>
      <point x="457" y="387" type="line"/>
    </contour>
    <contour>
      <point x="265" y="641" type="line"/>
      <point x="378" y="641" type="line" smooth="yes"/>
      <point x="452" y="641"/>
      <point x="487" y="634"/>
      <point x="491" y="598" type="curve" smooth="yes"/>
      <point x="499" y="518" type="line"/>
      <point x="571" y="518" type="line"/>
      <point x="571" y="710" type="line"/>
      <point x="38" y="710" type="line"/>
      <point x="38" y="652" type="line"/>
      <point x="48" y="652" type="line" smooth="yes"/>
      <point x="90" y="652"/>
      <point x="120" y="645"/>
      <point x="120" y="616" type="curve" smooth="yes"/>
      <point x="120" y="94" type="line" smooth="yes"/>
      <point x="120" y="65"/>
      <point x="90" y="58"/>
      <point x="48" y="58" type="curve" smooth="yes"/>
      <point x="38" y="58" type="line"/>
      <point x="38" y="0" type="line"/>
      <point x="365" y="0" type="line"/>
      <point x="365" y="58" type="line"/>
      <point x="348" y="58" type="line" smooth="yes"/>
      <point x="310" y="58"/>
      <point x="265" y="59"/>
      <point x="265" y="94" type="curve" smooth="yes"/>
    </contour>
    <contour>
      <point x="487" y="256" type="line"/>
      <point x="487" y="452" type="line"/>
      <point x="430" y="452" type="line"/>
      <point x="430" y="446" type="line" smooth="yes"/>
      <point x="430" y="415"/>
      <point x="420" y="387"/>
      <point x="391" y="387" type="curve"/>
      <point x="391" y="321" type="line"/>
      <point x="420" y="321"/>
      <point x="430" y="293"/>
      <point x="430" y="262" type="curve" smooth="yes"/>
      <point x="430" y="256" type="line"/>
    </contour>
  </outline>
</glyph>
<glyph name="asterisk.alt" format="1">
  <advance width="414"/>
  <outline>
    <contour>
      <point x="227" y="513" type="curve"/>
      <point x="180" y="546" type="line"/>
      <point x="126" y="471"/>
      <point x="92" y="458"/>
      <point x="61" y="415" type="curve"/>
      <point x="138" y="358" type="line"/>
      <point x="169" y="401"/>
      <point x="173" y="437"/>
    </contour>
    <contour>
      <point x="201" y="505" type="curve"/>
      <point x="218" y="559" type="line"/>
      <point x="130" y="588"/>
      <point x="107" y="614"/>
      <point x="56" y="631" type="curve"/>
      <point x="27" y="542" type="line"/>
      <point x="78" y="525"/>
      <point x="113" y="533"/>
    </contour>
    <contour>
      <point x="178" y="533" type="curve"/>
      <point x="235" y="533" type="line"/>
      <point x="235" y="625"/>
      <point x="255" y="657"/>
      <point x="255" y="710" type="curve"/>
      <point x="159" y="710" type="line"/>
      <point x="159" y="657"/>
      <point x="178" y="625"/>
    </contour>
    <contour>
      <point x="276" y="358" type="curve"/>
      <point x="353" y="415" type="line"/>
      <point x="321" y="458"/>
      <point x="288" y="471"/>
      <point x="234" y="546" type="curve"/>
      <point x="187" y="513" type="line"/>
      <point x="241" y="437"/>
      <point x="244" y="401"/>
    </contour>
    <contour>
      <point x="213" y="505" type="line"/>
      <point x="301" y="533"/>
      <point x="336" y="525"/>
      <point x="387" y="542" type="curve"/>
      <point x="358" y="631" type="line"/>
      <point x="307" y="614"/>
      <point x="284" y="588"/>
      <point x="196" y="559" type="curve"/>
    </contour>
  </outline>
</glyph>
<glyph name="baht" format="1">
  <advance width="560"/>
  <outline>
    <contour>
      <point x="246" y="790" type="line"/>
      <point x="246" y="676" type="line"/>
      <point x="255" y="660" type="line"/>
      <point x="255" y="46" type="line"/>
      <point x="246" y="36" type="line"/>
      <point x="246" y="-110" type="line"/>
      <point x="321" y="-110" type="line"/>
      <point x="321" y="38" type="line"/>
      <point x="311" y="50" type="line"/>
      <point x="311" y="662" type="line"/>
      <point x="321" y="673" type="line"/>
      <point x="321" y="790" type="line"/>
    </contour>
    <contour>
      <point x="294" y="703" type="curve"/>
      <point x="2" y="703" type="line"/>
      <point x="2" y="645" type="line"/>
      <point x="12" y="645" type="line" smooth="yes"/>
      <point x="40" y="645"/>
      <point x="62" y="638"/>
      <point x="62" y="609" type="curve" smooth="yes"/>
      <point x="62" y="101" type="line" smooth="yes"/>
      <point x="62" y="72"/>
      <point x="40" y="65"/>
      <point x="12" y="65" type="curve" smooth="yes"/>
      <point x="2" y="65" type="line"/>
      <point x="2" y="7" type="line"/>
      <point x="300" y="7" type="line" smooth="yes"/>
      <point x="465" y="7"/>
      <point x="550" y="83"/>
      <point x="550" y="208" type="curve" smooth="yes"/>
      <point x="550" y="318"/>
      <point x="464" y="382"/>
      <point x="312" y="384" type="curve"/>
      <point x="308" y="366" type="line"/>
      <point x="448" y="368"/>
      <point x="524" y="429"/>
      <point x="524" y="533" type="curve" smooth="yes"/>
      <point x="524" y="638"/>
      <point x="447" y="703"/>
    </contour>
    <contour>
      <point x="296" y="403" type="curve"/>
      <point x="175" y="403" type="line"/>
      <point x="175" y="637" type="line"/>
      <point x="286" y="637" type="line"/>
      <point x="376" y="637"/>
      <point x="411" y="599"/>
      <point x="411" y="525" type="curve" smooth="yes"/>
      <point x="411" y="455"/>
      <point x="385" y="403"/>
    </contour>
    <contour>
      <point x="302" y="339" type="line"/>
      <point x="400" y="339"/>
      <point x="434" y="286"/>
      <point x="434" y="212" type="curve" smooth="yes"/>
      <point x="434" y="120"/>
      <point x="391" y="72"/>
      <point x="289" y="72" type="curve" smooth="yes"/>
      <point x="175" y="72" type="line"/>
      <point x="175" y="339" type="line"/>
    </contour>
  </outline>
</glyph>
<glyph name="cent.alt" format="1">
  <advance width="560"/>
  <outline>
    <contour>
      <point x="327" y="58" type="curve" smooth="yes"/>
      <point x="236" y="58"/>
      <point x="174" y="132"/>
      <point x="174" y="250" type="curve" smooth="yes"/>
      <point x="174" y="370"/>
      <point x="227" y="450"/>
      <point x="318" y="450" type="curve" smooth="yes"/>
      <point x="377" y="450"/>
      <point x="421" y="419"/>
      <point x="439" y="388" type="curve"/>
      <point x="453" y="407"/>
      <point x="441" y="447"/>
      <point x="410" y="446" type="curve"/>
      <point x="410" y="328" type="line"/>
      <point x="520" y="328" type="line"/>
      <point x="520" y="452" type="line"/>
      <point x="496" y="473"/>
      <point x="425" y="520"/>
      <point x="311" y="520" type="curve" smooth="yes"/>
      <point x="145" y="520"/>
      <point x="32" y="411"/>
      <point x="32" y="250" type="curve" smooth="yes"/>
      <point x="32" y="92"/>
      <point x="153" y="-13"/>
      <point x="310" y="-13" type="curve" smooth="yes"/>
      <point x="424" y="-13"/>
      <point x="487" y="45"/>
      <point x="529" y="119" type="curve"/>
      <point x="473" y="161" type="line"/>
      <point x="444" y="116"/>
      <point x="406" y="58"/>
    </contour>
    <contour>
      <point x="344" y="493" type="line"/>
      <point x="344" y="623" type="line"/>
      <point x="271" y="623" type="line"/>
      <point x="271" y="487" type="line"/>
    </contour>
    <contour>
      <point x="271" y="22" type="line"/>
      <point x="271" y="-126" type="line"/>
      <point x="344" y="-126" type="line"/>
      <point x="344" y="28" type="line"/>
    </contour>
  </outline>
</glyph>
<glyph name="circumflex_grave.uc" format="1">
  <advance width="510"/>
  <outline>
    <contour>
      <point x="465" y="963" type="line" smooth="yes"/>
      <point x="445" y="998"/>
      <point x="423" y="1017"/>
      <point x="390" y="1017" type="curve" smooth="yes"/>
      <point x="359" y="1017"/>
      <point x="338" y="995"/>
      <point x="338" y="967" type="curve" smooth="yes"/>
      <point x="338" y="934"/>
      <point x="363" y="911"/>
      <point x="406" y="892" type="curve" smooth="yes"/>
      <point x="479" y="857" type="line"/>
      <point x="515" y="857" type="line"/>
      <point x="515" y="880" type="line"/>
    </contour>
    <component base="circumflex.uc"/>
    <contour>
      <point x="245" y="696" type="move" name="_top"/>
    </contour>
  </outline>
</glyph>
<glyph name="circumflex_hook" format="1">
  <advance width="510"/>
  <outline>
    <contour>
      <point x="312" y="793" type="line"/>
      <point x="315" y="834"/>
      <point x="351" y="871"/>
      <point x="427" y="871" type="curve" smooth="yes"/>
      <point x="500" y="871"/>
      <point x="541" y="843"/>
      <point x="541" y="797" type="curve"/>
      <point x="541" y="744"/>
      <point x="487" y="722"/>
      <point x="420" y="716" type="curve"/>
      <point x="455" y="742" type="line"/>
      <point x="455" y="691" type="line"/>
      <point x="385" y="691" type="line"/>
      <point x="385" y="751" type="line"/>
      <point x="433" y="754"/>
      <point x="452" y="769"/>
      <point x="452" y="794" type="curve"/>
      <point x="452" y="812"/>
      <point x="443" y="823"/>
      <point x="424" y="823" type="curve" smooth="yes"/>
      <point x="404" y="823"/>
      <point x="394" y="811"/>
      <point x="391" y="793" type="curve"/>
    </contour>
    <component base="circumflex"/>
    <contour>
      <point x="245" y="559" type="move" name="_top"/>
    </contour>
  </outline>
</glyph>
<glyph name="five.lin" format="1">
  <advance width="560"/>
  <outline>
    <contour>
      <point x="264" y="-11" type="curve" smooth="yes"/>
      <point x="131" y="-11"/>
      <point x="57" y="58"/>
      <point x="19" y="140" type="curve"/>
      <point x="84" y="186" type="line"/>
      <point x="112" y="132"/>
      <point x="156" y="63"/>
      <point x="252" y="63" type="curve" smooth="yes"/>
      <point x="336" y="63"/>
      <point x="392" y="133"/>
      <point x="392" y="242" type="curve" smooth="yes"/>
      <point x="392" y="342"/>
      <point x="339" y="397"/>
      <point x="267" y="397" type="curve" smooth="yes"/>
      <point x="214" y="397"/>
      <point x="172" y="372"/>
      <point x="142" y="329" type="curve"/>
      <point x="75" y="329" type="line"/>
      <point x="75" y="710" type="line"/>
      <point x="480" y="710" type="line"/>
      <point x="458" y="607" type="line"/>
      <point x="125" y="607" type="line"/>
      <point x="151" y="690" type="line"/>
      <point x="151" y="377" type="line"/>
      <point x="148" y="366"/>
      <point x="129" y="359"/>
      <point x="126" y="377" type="curve"/>
      <point x="161" y="431"/>
      <point x="223" y="467"/>
      <point x="304" y="467" type="curve" smooth="yes"/>
      <point x="442" y="467"/>
      <point x="526" y="367"/>
      <point x="526" y="241" type="curve" smooth="yes"/>
      <point x="526" y="92"/>
      <point x="420" y="-11"/>
    </contour>
  </outline>
</glyph>
<glyph name="horn" format="1">
  <advance width="500"/>
  <outline>
    <contour>
      <point x="142" y="478" type="curve"/>
      <point x="337" y="466"/>
      <point x="408" y="520"/>
      <point x="408" y="680" type="curve"/>
      <point x="303" y="680" type="line"/>
      <point x="302" y="554"/>
      <point x="263" y="520"/>
      <point x="101" y="520" type="curve"/>
      <point x="109" y="509"/>
      <point x="132" y="485"/>
    </contour>
    <contour>
      <point x="258" y="444" type="move" name="_top"/>
    </contour>
  </outline>
</glyph>
<glyph name="hungarumlaut.uc" format="1">
  <advance width="500"/>
  <outline>
    <contour>
      <point x="157" y="852" type="curve" smooth="yes"/>
      <point x="142" y="776" type="line"/>
      <point x="142" y="752" type="line"/>
      <point x="188" y="752" type="line"/>
      <point x="231" y="797" type="line" smooth="yes"/>
      <point x="263" y="832"/>
      <point x="279" y="852"/>
      <point x="279" y="879" type="curve" smooth="yes"/>
      <point x="279" y="908"/>
      <point x="258" y="928"/>
      <point x="223" y="928" type="curve" smooth="yes"/>
      <point x="186" y="928"/>
      <point x="167" y="906"/>
    </contour>
    <contour>
      <point x="334" y="852" type="curve" smooth="yes"/>
      <point x="318" y="776" type="line"/>
      <point x="318" y="752" type="line"/>
      <point x="365" y="752" type="line"/>
      <point x="407" y="797" type="line" smooth="yes"/>
      <point x="440" y="832"/>
      <point x="455" y="852"/>
      <point x="455" y="879" type="curve" smooth="yes"/>
      <point x="455" y="908"/>
      <point x="434" y="928"/>
      <point x="400" y="928" type="curve" smooth="yes"/>
      <point x="363" y="928"/>
      <point x="344" y="906"/>
    </contour>
    <contour>
      <point x="269" y="694" type="move" name="_top"/>
    </contour>
  </outline>
</glyph>
<glyph name="liraTurkish" format="1">
  <advance width="560"/>
  <outline>
    <contour>
      <point x="27" y="405" type="line"/>
      <point x="27" y="342" type="line"/>
      <point x="413" y="525" type="line"/>
      <point x="413" y="588" type="line"/>
    </contour>
    <contour>
      <point x="27" y="245" type="line"/>
      <point x="27" y="182" type="line"/>
      <point x="413" y="365" type="line"/>
      <point x="413" y="428" type="line"/>
    </contour>
    <contour>
      <point x="278" y="68" type="curve" smooth="yes"/>
      <point x="244" y="68" type="line"/>
      <point x="244" y="616" type="line" smooth="yes"/>
      <point x="244" y="645"/>
      <point x="274" y="652"/>
      <point x="316" y="652" type="curve" smooth="yes"/>
      <point x="328" y="652" type="line"/>
      <point x="328" y="710" type="line"/>
      <point x="27" y="710" type="line"/>
      <point x="27" y="652" type="line"/>
      <point x="36" y="652" type="line" smooth="yes"/>
      <point x="77" y="652"/>
      <point x="108" y="645"/>
      <point x="108" y="616" type="curve" smooth="yes"/>
      <point x="108" y="94" type="line" smooth="yes"/>
      <point x="108" y="65"/>
      <point x="77" y="58"/>
      <point x="36" y="58" type="curve" smooth="yes"/>
      <point x="27" y="58" type="line"/>
      <point x="27" y="0" type="line"/>
      <point x="247" y="0" type="line" smooth="yes"/>
      <point x="435" y="0"/>
      <point x="526" y="96"/>
      <point x="536" y="273" type="curve"/>
      <point x="440" y="301" type="line"/>
      <point x="437" y="159"/>
      <point x="384" y="68"/>
    </contour>
  </outline>
</glyph>
<glyph name="macronbelow" format="1">
  <advance width="500"/>
  <outline>
    <component base="macron" yOffset="-801"/>
    <contour>
      <point x="250" y="-36" type="move" name="_bottom"/>
    </contour>
  </outline>
</glyph>
<glyph name="one.lin" format="1">
  <advance width="560"/>
  <outline>
    <contour>
      <point x="371" y="97" type="curve" smooth="yes"/>
      <point x="371" y="710" type="line"/>
      <point x="265" y="710" type="line"/>
      <point x="229" y="660"/>
      <point x="166" y="635"/>
      <point x="65" y="634" type="curve"/>
      <point x="65" y="552" type="line"/>
      <point x="155" y="550"/>
      <point x="230" y="579"/>
      <point x="252" y="639" type="curve"/>
      <point x="251" y="652"/>
      <point x="247" y="646"/>
      <point x="233" y="629" type="curve"/>
      <point x="233" y="97" type="line" smooth="yes"/>
      <point x="233" y="65"/>
      <point x="190" y="58"/>
      <point x="127" y="58" type="curve" smooth="yes"/>
      <point x="83" y="58" type="line"/>
      <point x="83" y="0" type="line"/>
      <point x="518" y="0" type="line"/>
      <point x="518" y="58" type="line"/>
      <point x="484" y="58" type="line" smooth="yes"/>
      <point x="416" y="58"/>
      <point x="371" y="65"/>
    </contour>
  </outline>
</glyph>
<glyph name="peseta.proportional" format="1">
  <advance width="845"/>
  <outline>
    <contour>
      <point x="37" y="0" type="line"/>
      <point x="329" y="0" type="line"/>
      <point x="329" y="58" type="line"/>
      <point x="304" y="58" type="line" smooth="yes"/>
      <point x="277" y="58"/>
      <point x="241" y="61"/>
      <point x="241" y="68" type="curve" smooth="yes"/>
      <point x="241" y="269" type="line"/>
      <point x="266" y="269" type="line" smooth="yes"/>
      <point x="432" y="269"/>
      <point x="528" y="366"/>
      <point x="528" y="493" type="curve" smooth="yes"/>
      <point x="528" y="625"/>
      <point x="434" y="710"/>
      <point x="262" y="710" type="curve" smooth="yes"/>
      <point x="37" y="710" type="line"/>
      <point x="37" y="652" type="line"/>
      <point x="48" y="652" type="line" smooth="yes"/>
      <point x="85" y="652"/>
      <point x="113" y="645"/>
      <point x="113" y="616" type="curve" smooth="yes"/>
      <point x="113" y="94" type="line" smooth="yes"/>
      <point x="113" y="65"/>
      <point x="85" y="58"/>
      <point x="48" y="58" type="curve" smooth="yes"/>
      <point x="37" y="58" type="line"/>
    </contour>
    <contour>
      <point x="267" y="639" type="line" smooth="yes"/>
      <point x="357" y="639"/>
      <point x="400" y="586"/>
      <point x="400" y="492" type="curve" smooth="yes"/>
      <point x="400" y="398"/>
      <point x="357" y="338"/>
      <point x="262" y="338" type="curve" smooth="yes"/>
      <point x="241" y="338" type="line"/>
      <point x="241" y="639" type="line"/>
    </contour>
    <contour>
      <point x="511" y="438" type="line"/>
      <point x="823" y="438" type="line"/>
      <point x="823" y="508" type="line"/>
      <point x="658" y="508" type="line"/>
      <point x="607" y="556" type="line"/>
      <point x="607" y="511"/>
      <point x="585" y="502"/>
      <point x="540" y="502" type="curve" smooth="yes"/>
      <point x="507" y="502" type="line"/>
    </contour>
    <contour>
      <point x="715" y="140" type="curve" smooth="yes"/>
      <point x="715" y="648" type="line"/>
      <point x="607" y="648" type="line"/>
      <point x="607" y="500" type="line"/>
      <point x="591" y="479" type="line"/>
      <point x="591" y="139" type="line" smooth="yes"/>
      <point x="591" y="20"/>
      <point x="666" y="-11"/>
      <point x="754" y="-11" type="curve" smooth="yes"/>
      <point x="784" y="-11"/>
      <point x="808" y="-7"/>
      <point x="823" y="-2" type="curve"/>
      <point x="823" y="69" type="line"/>
      <point x="814" y="66"/>
      <point x="795" y="63"/>
      <point x="778" y="63" type="curve" smooth="yes"/>
      <point x="739" y="63"/>
      <point x="715" y="82"/>
    </contour>
  </outline>
</glyph>
<glyph name="ringcomb" format="1">
  <outline>
    <contour>
      <point x="-358" y="667" type="curve" smooth="yes"/>
      <point x="-358" y="706"/>
      <point x="-336" y="724"/>
      <point x="-308" y="724" type="curve" smooth="yes"/>
      <point x="-280" y="724"/>
      <point x="-258" y="706"/>
      <point x="-258" y="667" type="curve" smooth="yes"/>
      <point x="-258" y="630"/>
      <point x="-279" y="611"/>
      <point x="-308" y="611" type="curve" smooth="yes"/>
      <point x="-336" y="611"/>
      <point x="-358" y="630"/>
    </contour>
    <contour>
      <point x="-184" y="667" type="curve" smooth="yes"/>
      <point x="-184" y="734"/>
      <point x="-238" y="770"/>
      <point x="-308" y="770" type="curve" smooth="yes"/>
      <point x="-378" y="770"/>
      <point x="-432" y="734"/>
      <point x="-432" y="667" type="curve" smooth="yes"/>
      <point x="-432" y="601"/>
      <point x="-378" y="565"/>
      <point x="-308" y="565" type="curve" smooth="yes"/>
      <point x="-238" y="565"/>
      <point x="-184" y="601"/>
    </contour>
    <contour>
      <point x="-307" y="526" type="move" name="_top"/>
    </contour>
  </outline>
</glyph>
<glyph name="ruble.proportional" format="1">
  <advance width="606"/>
  <outline>
    <contour>
      <point x="43" y="383" type="line"/>
      <point x="332" y="383" type="line" smooth="yes"/>
      <point x="415" y="383"/>
      <point x="459" y="433"/>
      <point x="459" y="517" type="curve" smooth="yes"/>
      <point x="459" y="598"/>
      <point x="415" y="642"/>
      <point x="337" y="642" type="curve" smooth="yes"/>
      <point x="260" y="642" type="line"/>
      <point x="260" y="68" type="line" smooth="yes"/>
      <point x="260" y="61"/>
      <point x="296" y="58"/>
      <point x="325" y="58" type="curve" smooth="yes"/>
      <point x="351" y="58" type="line"/>
      <point x="351" y="0" type="line"/>
      <point x="43" y="0" type="line"/>
      <point x="43" y="58" type="line"/>
      <point x="54" y="58" type="line" smooth="yes"/>
      <point x="95" y="58"/>
      <point x="126" y="65"/>
      <point x="126" y="94" type="curve" smooth="yes"/>
      <point x="126" y="616" type="line" smooth="yes"/>
      <point x="126" y="645"/>
      <point x="95" y="652"/>
      <point x="54" y="652" type="curve" smooth="yes"/>
      <point x="43" y="652" type="line"/>
      <point x="43" y="710" type="line"/>
      <point x="341" y="710" type="line" smooth="yes"/>
      <point x="498" y="710"/>
      <point x="593" y="638"/>
      <point x="593" y="520" type="curve" smooth="yes"/>
      <point x="593" y="400"/>
      <point x="493" y="321"/>
      <point x="337" y="321" type="curve" smooth="yes"/>
      <point x="43" y="321" type="line"/>
    </contour>
    <contour>
      <point x="425" y="173" type="line"/>
      <point x="43" y="173" type="line"/>
      <point x="43" y="235" type="line"/>
      <point x="425" y="235" type="line"/>
    </contour>
  </outline>
</glyph>
<glyph name="rupeeIndian" format="1">
  <advance width="560"/>
  <outline>
    <contour>
      <point x="61" y="520" type="line"/>
      <point x="61" y="454" type="line"/>
      <point x="540" y="454" type="line"/>
      <point x="540" y="520" type="line"/>
    </contour>
    <contour>
      <point x="112" y="274" type="line"/>
      <point x="140" y="274" type="line" smooth="yes"/>
      <point x="320" y="274"/>
      <point x="430" y="360"/>
      <point x="430" y="482" type="curve" smooth="yes"/>
      <point x="430" y="579"/>
      <point x="369" y="647"/>
      <point x="221" y="663" type="curve"/>
      <point x="192" y="686"/>
      <point x="124" y="694"/>
      <point x="188" y="644" type="curve"/>
      <point x="540" y="644" type="line"/>
      <point x="540" y="710" type="line"/>
      <point x="61" y="710" type="line"/>
      <point x="61" y="639" type="line"/>
      <point x="132" y="639" type="line" smooth="yes"/>
      <point x="244" y="639"/>
      <point x="294" y="582"/>
      <point x="294" y="489" type="curve" smooth="yes"/>
      <point x="294" y="394"/>
      <point x="248" y="333"/>
      <point x="122" y="333" type="curve" smooth="yes"/>
      <point x="61" y="333" type="line"/>
      <point x="61" y="278" type="line"/>
      <point x="328" y="0" type="line"/>
      <point x="500" y="0" type="line"/>
      <point x="500" y="57" type="line"/>
      <point x="488" y="57" type="line" smooth="yes"/>
      <point x="458" y="57"/>
      <point x="440" y="65"/>
      <point x="420" y="85" type="curve" smooth="yes"/>
      <point x="190" y="313" type="line"/>
    </contour>
  </outline>
</glyph>
<glyph name="six.den" format="1">
  <advance width="351"/>
  <outline>
    <contour>
      <point x="295" y="323" type="line"/>
      <point x="180" y="312"/>
      <point x="120" y="250"/>
      <point x="120" y="148" type="curve" smooth="yes"/>
      <point x="120" y="63"/>
      <point x="144" y="39"/>
      <point x="179" y="39" type="curve" smooth="yes"/>
      <point x="211" y="39"/>
      <point x="228" y="66"/>
      <point x="228" y="120" type="curve" smooth="yes"/>
      <point x="228" y="165"/>
      <point x="215" y="195"/>
      <point x="180" y="195" type="curve" smooth="yes"/>
      <point x="148" y="195"/>
      <point x="123" y="169"/>
      <point x="107" y="134" type="curve"/>
      <point x="103" y="170" type="line"/>
      <point x="116" y="203"/>
      <point x="152" y="239"/>
      <point x="209" y="239" type="curve" smooth="yes"/>
      <point x="279" y="239"/>
      <point x="329" y="197"/>
      <point x="329" y="124" type="curve" smooth="yes"/>
      <point x="329" y="44"/>
      <point x="268" y="-6"/>
      <point x="180" y="-6" type="curve" smooth="yes"/>
      <point x="84" y="-6"/>
      <point x="22" y="45"/>
      <point x="22" y="148" type="curve" smooth="yes"/>
      <point x="22" y="264"/>
      <point x="117" y="356"/>
      <point x="288" y="367" type="curve"/>
    </contour>
  </outline>
</glyph>
<glyph name="uni20B8.proportional" format="1">
  <advance width="624"/>
  <outline>
    <contour>
      <point x="245" y="94" type="line" smooth="yes"/>
      <point x="245" y="65"/>
      <point x="215" y="58"/>
      <point x="173" y="58" type="curve" smooth="yes"/>
      <point x="158" y="58" type="line"/>
      <point x="158" y="0" type="line"/>
      <point x="465" y="0" type="line"/>
      <point x="465" y="58" type="line"/>
      <point x="450" y="58" type="line" smooth="yes"/>
      <point x="409" y="58"/>
      <point x="379" y="65"/>
      <point x="379" y="94" type="curve" smooth="yes"/>
      <point x="379" y="502" type="line"/>
      <point x="404" y="502" type="line" smooth="yes"/>
      <point x="470" y="502"/>
      <point x="505" y="494"/>
      <point x="508" y="457" type="curve" smooth="yes"/>
      <point x="516" y="359" type="line"/>
      <point x="584" y="359" type="line"/>
      <point x="584" y="568" type="line"/>
      <point x="39" y="568" type="line"/>
      <point x="39" y="359" type="line"/>
      <point x="107" y="359" type="line"/>
      <point x="115" y="457" type="line" smooth="yes"/>
      <point x="118" y="494"/>
      <point x="153" y="502"/>
      <point x="220" y="502" type="curve" smooth="yes"/>
      <point x="245" y="502" type="line"/>
    </contour>
    <contour>
      <point x="39" y="710" type="line"/>
      <point x="39" y="645" type="line"/>
      <point x="584" y="645" type="line"/>
      <point x="584" y="710" type="line"/>
    </contour>
  </outline>
</glyph>
<glyph name="won.proportional" format="1">
  <advance width="993"/>
  <outline>
    <contour>
      <point x="28" y="710" type="line"/>
      <point x="28" y="652" type="line"/>
      <point x="34" y="652" type="line" smooth="yes"/>
      <point x="66" y="652"/>
      <point x="88" y="648"/>
      <point x="95" y="618" type="curve" smooth="yes"/>
      <point x="230" y="0" type="line"/>
      <point x="383" y="0" type="line"/>
      <point x="512" y="666" type="line"/>
      <point x="490" y="676" type="line"/>
      <point x="625" y="0" type="line"/>
      <point x="773" y="0" type="line"/>
      <point x="898" y="609" type="line" smooth="yes"/>
      <point x="905" y="643"/>
      <point x="928" y="652"/>
      <point x="959" y="652" type="curve" smooth="yes"/>
      <point x="965" y="652" type="line"/>
      <point x="965" y="710" type="line"/>
      <point x="751" y="710" type="line"/>
      <point x="751" y="652" type="line"/>
      <point x="766" y="652" type="line" smooth="yes"/>
      <point x="797" y="652"/>
      <point x="834" y="645"/>
      <point x="834" y="634" type="curve"/>
      <point x="719" y="47" type="line"/>
      <point x="736" y="58" type="line"/>
      <point x="604" y="710" type="line"/>
      <point x="459" y="710" type="line"/>
      <point x="329" y="37" type="line"/>
      <point x="350" y="44" type="line"/>
      <point x="228" y="642" type="line"/>
      <point x="228" y="649"/>
      <point x="267" y="652"/>
      <point x="299" y="652" type="curve" smooth="yes"/>
      <point x="314" y="652" type="line"/>
      <point x="314" y="710" type="line"/>
    </contour>
    <contour>
      <point x="28" y="465" type="line"/>
      <point x="28" y="404" type="line"/>
      <point x="209" y="404" type="line"/>
      <point x="222" y="404" type="line"/>
      <point x="427" y="404" type="line"/>
      <point x="439" y="465" type="line"/>
    </contour>
    <contour>
      <point x="586" y="404" type="line"/>
      <point x="824" y="404" type="line"/>
      <point x="832" y="404" type="line"/>
      <point x="965" y="404" type="line"/>
      <point x="965" y="465" type="line"/>
      <point x="575" y="465" type="line"/>
    </contour>
    <contour>
      <point x="399" y="234" type="line"/>
      <point x="632" y="234" type="line"/>
      <point x="625" y="295" type="line"/>
      <point x="411" y="295" type="line"/>
    </contour>
    <contour>
      <point x="794" y="234" type="line"/>
      <point x="965" y="234" type="line"/>
      <point x="965" y="295" type="line"/>
      <point x="806" y="295" type="line"/>
    </contour>
    <contour>
      <point x="214" y="295" type="line"/>
      <point x="28" y="295" type="line"/>
      <point x="28" y="234" type="line"/>
      <point x="224" y="234" type="line"/>
    </contour>
  </outline>
</glyph>
